<?xml version="1.0" encoding="utf-8"?>
<!-- Generator: Adobe Illustrator 19.2.1, SVG Export Plug-In . SVG Version: 6.00 Build 0)  -->
<svg version="1.1" xmlns="http://www.w3.org/2000/svg" xmlns:xlink="http://www.w3.org/1999/xlink" x="0px" y="0px"
	 viewBox="0 0 244.1 125.7" style="enable-background:new 0 0 244.1 125.7;" xml:space="preserve">
<style type="text/css">
	.st0{display:none;}
	.st1{display:inline;}
	.st2{fill:#FFFFFF;stroke:#ABABAB;stroke-miterlimit:10;}
	.st3{fill:#FFFFFF;stroke:#AAAAAA;stroke-miterlimit:10;}
	.st4{fill:none;stroke:#ABABAB;stroke-miterlimit:10;}
	.st5{fill:#B87129;}
	.st6{fill:#F3B398;}
	.st7{fill:#FACD62;}
	.st8{fill:none;stroke:#CDA352;stroke-miterlimit:10;}
	.st9{fill:#3A3939;}
	.st10{fill:none;stroke:#CB9182;stroke-linecap:round;stroke-miterlimit:10;}
	.st11{fill:#FFFFFF;}
	.st12{fill:#666766;}
	.st13{fill:#121017;}
	.st14{fill:#C9D8E9;}
	.st15{fill:#73C7E7;}
	.st16{fill:#D62A28;}
	.st17{fill:#E49E9C;}
	.st18{fill:#F8EB32;}
	.st19{opacity:0.58;fill:#ABABAB;}
	.st20{opacity:0.58;fill:#4D4D4D;}
	.st21{opacity:0.42;}
	.st22{fill:none;stroke:#4D4D4D;stroke-width:2;stroke-miterlimit:10;}
	.st23{fill:#333333;}
	.st24{fill:#F17B22;}
	.st25{fill:#333333;stroke:#ABABAB;stroke-miterlimit:10;}
	.st26{fill:#0497D0;}
	.st27{fill:none;stroke:#02769A;stroke-miterlimit:10;}
	.st28{fill:#414142;}
</style>
<g id="Layer_1" class="st0">
	<g class="st1">
		<path class="st2" d="M74.9,119.2V81.9c0-3.8,3.1-7,7-7h19.9c3.8,0,7,3.1,7,7v37.3"/>
		<path class="st2" d="M119.5,119.2V81.9c0-3.8,3.1-7,7-7h19.9c3.9,0,7,3.1,7,7v37.3"/>
		<path class="st3" d="M12.9,74.9h44.5c3.8,0,7,3.1,7,7v37.3"/>
		<path class="st4" d="M163.5,29.5h18.5c3.8,0,6.9-3.1,6.9-6.9v0c0-3.8-3.1-6.9-6.9-6.9h-18.5c-3.8,0-6.9,3.1-6.9,6.9v0
			C156.7,26.4,159.8,29.5,163.5,29.5z"/>
		
			<rect x="172.8" y="10.9" transform="matrix(-1 -4.486867e-11 4.486867e-11 -1 353.1186 26.693)" class="st4" width="7.5" height="4.9"/>
		<path class="st4" d="M49.9,119.2v-4.5c0-0.5,0.4-0.8,0.8-0.8h2.4c0.5,0,0.8,0.4,0.8,0.8v4.5"/>
		<g>
			<circle class="st5" cx="97.7" cy="57.7" r="10.3"/>
			<polygon class="st6" points="167.9,105.2 163.7,103.9 164.2,106.8 			"/>
			<polygon class="st7" points="166.4,118.7 142.8,118.7 131.4,73.2 138.6,73.2 153.5,107.6 163.6,102.8 			"/>
			<path class="st7" d="M142,86.9c0-14.3-9.2-27.2-19.9-27.2h-18c-10.7,0-18.5,12.8-18.5,27.2l3.7,31.8h53.3L142,86.9z"/>
			<polyline class="st8" points="122.6,102.2 100,106.8 95.2,81.4 			"/>
			<line class="st8" x1="133.8" y1="75.7" x2="145" y2="115"/>
			<line class="st8" x1="93.2" y1="80.6" x2="97.6" y2="83.4"/>
			<line class="st8" x1="134.4" y1="74.9" x2="132.3" y2="79.7"/>
			<path class="st9" d="M137.6,113.8c0-3.8,3.1-6.9,6.9-6.9c3.8,0,6.9,3.1,6.9,6.9c0,1.9-0.8,3.6-2,4.9h-9.7
				C138.4,117.5,137.6,115.8,137.6,113.8z"/>
			<polygon class="st6" points="125.9,101.2 122.4,101.6 124.4,103.1 			"/>
			<path class="st9" d="M164,113.8c0-11.2-9.1-20.2-20.2-20.2c-11.2,0-20.2,9.1-20.2,20.2c0,1.7,0.2,3.3,0.6,4.9H121
				c-0.3-1.6-0.5-3.2-0.5-4.9c0-12.8,10.4-23.2,23.2-23.2c12.8,0,23.2,10.4,23.2,23.2c0,1.7-0.2,3.3-0.5,4.9h-3.1
				C163.8,117.2,164,115.5,164,113.8z"/>
			<polygon class="st6" points="118.5,108.5 122.4,101.6 129.4,104.7 124.7,112.2 			"/>
			<polygon class="st6" points="167.9,105.2 169,113.8 161.9,116 159.4,106.1 			"/>
			<circle class="st5" cx="115.4" cy="27.3" r="23.9"/>
			<circle class="st5" cx="123.4" cy="26.1" r="14"/>
			<circle class="st5" cx="133.2" cy="20.8" r="11.5"/>
			<path class="st6" d="M110.7,40.4c-3.4,1-6.4,3.4-7.3,7.4h-1.2v2.1c0,0,0,0,0,0V61c0,5.5,4.5,10,10,10l0,0c5.5,0,10-4.5,10-10
				v-2.6l0,0v-4.7h9.4c3.1,0,4.6-1.4,4.6-4.6V24.8c-1,0.4-1.4,2-2.7,2H115l-0.1,11.5L110.7,40.4z"/>
			<g>
				<circle cx="133.8" cy="35.3" r="0.9"/>
				<circle cx="123.5" cy="35.3" r="0.9"/>
			</g>
			<path class="st10" d="M133.6,45.8c-2.5,2.5-6.6,2.5-9.2,0"/>
			<path class="st10" d="M130.6,31c0,0-1.6,7.2,1,11.2h-4.3"/>
			<circle class="st5" cx="97.7" cy="46.4" r="10.3"/>
			<path class="st8" d="M101.2,65.5c0,6.3,5.1,11.4,11.4,11.4c6.3,0,11.4-5.1,11.4-11.4"/>
			<path class="st8" d="M94.9,64.3c0,9.8,7.9,17.7,17.7,17.7s17.7-7.9,17.7-17.7"/>
			<circle class="st6" cx="110.6" cy="39.6" r="5.5"/>
			<circle class="st11" cx="107.6" cy="42.6" r="2.5"/>
			<g>
				<circle class="st11" cx="102.5" cy="62.7" r="1.8"/>
				<circle class="st11" cx="104.5" cy="66.7" r="1.8"/>
				<circle class="st11" cx="107.5" cy="69.7" r="1.8"/>
				<circle class="st11" cx="112.5" cy="70.7" r="1.8"/>
				<circle class="st11" cx="117.5" cy="69.7" r="1.8"/>
				<circle class="st11" cx="120.5" cy="65.7" r="1.8"/>
				<circle class="st11" cx="122.5" cy="61.7" r="1.8"/>
			</g>
			<circle class="st10" cx="129.5" cy="47.8" r="1.4"/>
		</g>
		<path class="st2" d="M77.8,11.2H63.1H31.9h-15c-8,0-15.1,6.7-15.1,14.7v-0.1c0,8,7.1,14.4,15.1,14.4h46.2c8,0,14.6-6.3,14.6-14.3
			v0.3c0-4.6-2.3-9-5.7-11h5.7V11.2z"/>
		<path class="st2" d="M34.4,125.7l-7-6.5h67.3c13.2-9,32.7-14.5,54.6-14.5s41.4,6.5,54.6,15.5h29.5l8.9,5.5"/>
		<polygon class="st12" points="104.3,105.4 128.1,59.9 132.3,62.2 111.2,104 		"/>
	</g>
</g>
<g id="Layer_2">
	<g>
		<line class="st4" x1="7.3" y1="121.2" x2="237.3" y2="121.2"/>
		<g>
			<g>
				<circle class="st13" cx="98.1" cy="112.9" r="8.2"/>
				<circle class="st13" cx="163.8" cy="112.9" r="8.2"/>
				<g>
					<polygon class="st14" points="146,73.5 156.2,91.3 144.7,91.3 128.2,73.5 					"/>
					<polygon class="st15" points="128.2,73.5 144.7,91.3 68,91.3 78.3,73.5 					"/>
				</g>
				<path class="st16" d="M50,93.6v16.2c0,1.7,1.4,3.1,3.1,3.1h1.3H57h28.6h12.7h21.9h28.6h6.8h21.4c6.1,0,11.1-5,11.1-11.1v-0.2
					c0-6.1-5-11.1-11.1-11.1h-19.7l-12.8-22.2h-6.3H111h-6.3H82.2h-5.6H76L63.1,90.5h-10C51.4,90.5,50,91.9,50,93.6z M83.2,90.5
					H69.4l9.8-17h4V90.5z M117.6,90.5H98.3H86.7v-17h21L117.6,90.5z M151.1,90.5h-27.3l-9.8-17h27.3L151.1,90.5z"/>
				<g>
					<circle class="st13" cx="70.9" cy="112.9" r="8.2"/>
					<circle class="st11" cx="70.9" cy="112.9" r="3.1"/>
				</g>
				<g>
					<circle class="st13" cx="134.2" cy="112.9" r="8.2"/>
					<circle class="st11" cx="134.2" cy="112.9" r="3.1"/>
				</g>
				
					<rect x="87.9" y="95.2" transform="matrix(-1 -4.307233e-11 4.307233e-11 -1 183.0681 192.9086)" class="st17" width="7.3" height="2.6"/>
				<g>
					<rect x="160.4" y="99.6" class="st17" width="12.8" height="3.3"/>
				</g>
				<g>
					<circle class="st18" cx="180" cy="101.4" r="2.9"/>
					<circle class="st18" cx="153.7" cy="101.4" r="2.9"/>
				</g>
			</g>
			<g>
				<path class="st19" d="M133,77.8h-7.5c-0.7,0-1.3-0.6-1.3-1.3v-1.8c0-0.7,0.6-1.3,1.3-1.3h7.5c0.7,0,1.3,0.6,1.3,1.3v1.8
					C134.2,77.2,133.7,77.8,133,77.8z"/>
				<path class="st20" d="M134.5,77.8H127c-0.7,0-1.3-0.6-1.3-1.3v-1.8c0-0.7,0.6-1.3,1.3-1.3h7.5c0.7,0,1.3,0.6,1.3,1.3v1.8
					C135.7,77.2,135.2,77.8,134.5,77.8z"/>
				<g class="st21">
					<path class="st22" d="M133.2,90.8L133.2,90.8c0-3,2.9-5.4,6.5-5.4c3.6,0,6.5,2.4,6.5,5.4"/>
				</g>
			</g>
		</g>
		<path class="st3" d="M101.1,29c0-13.7,11.1-24.5,24.8-24.5c9.4,0,17.6,5.4,21.8,13.1c2.8-1.6,6.1-3,9.5-3
			c10.3,0,18.7,6.6,19.5,17.6h-75.3C101.2,29.2,101.1,30.3,101.1,29z"/>
		<path class="st3" d="M51.6,47.5c1.9,0,3.6,1,4.9,2.6c2.7-3.6,6.3-5.8,10.3-5.8c2.8,0,5.4,1.1,7.7,3c2-2.8,4.6-4.5,7.6-4.5
			c5.4,0,9.9,6.3,10.7,13.3H44.1C44.8,50.2,47.9,47.5,51.6,47.5z"/>
		<rect x="197.9" y="95.1" class="st23" width="9.6" height="8.2"/>
		<rect x="198.4" y="97.6" class="st24" width="8.6" height="3.3"/>
		<line class="st3" x1="63.3" y1="68.2" x2="42.3" y2="68.2"/>
		<line class="st3" x1="32.3" y1="78.2" x2="11.3" y2="78.2"/>
		<line class="st3" x1="42.3" y1="78.2" x2="53.3" y2="78.2"/>
		<line class="st3" x1="45.3" y1="90.2" x2="24.3" y2="90.2"/>
		<path class="st4" d="M207.5,121.3V90c0-2.6-2.2-4.8-4.8-4.8l0,0c-2.6,0-4.8,2.2-4.8,4.8v31.3H207.5z"/>
	</g>
</g>
<g id="Layer_3" class="st0">
	<g class="st1">
		<polyline class="st4" points="43.8,82.7 43.8,48 24.1,82.2 206.8,82.2 206.8,45.7 		"/>
		<path class="st25" d="M149.3,120.5V83.2c0-3.8,3.1-7,7-7h19.9c3.8,0,7,3.1,7,7v37.3"/>
		<path class="st4" d="M190.6,119.9v-4.5c0-0.5,0.4-0.8,0.8-0.8h2.4c0.5,0,0.8,0.4,0.8,0.8v4.5"/>
		<g>
			<polygon class="st6" points="79.8,106.5 84,105.2 83.5,108.1 			"/>
			<polygon class="st26" points="81.5,120 105.1,120 116.5,74.5 109.3,74.5 94.4,108.9 84.3,104.1 			"/>
			<path class="st26" d="M105.9,87.9c0-14.3,11.2-27.2,24.1-27.2h21.8c12.9,0,22.5,12.8,22.5,27.2l-4.5,31.8h-64.6L105.9,87.9z"/>
			<g>
				
					<ellipse transform="matrix(0.1382 -0.9904 0.9904 0.1382 38.5521 209.6625)" class="st27" cx="139.8" cy="82.7" rx="1.2" ry="1.2"/>
				
					<ellipse transform="matrix(0.1382 -0.9904 0.9904 0.1382 31.4305 214.3023)" class="st27" cx="138.9" cy="89.1" rx="1.2" ry="1.2"/>
				
					<ellipse transform="matrix(0.1382 -0.9904 0.9904 0.1382 24.3089 218.9421)" class="st27" cx="138" cy="95.5" rx="1.2" ry="1.2"/>
			</g>
			<path class="st6" d="M118.7,23.7h19.9l-0.6,13.9c1-0.6,1.2,0.3,2.4,0.3c2,0,3.9,0.4,5,1.9c4,1.1,7.2,4,8.2,8h0.6v4.1c0,0,0,0,0,0
				v13.1c0,6.4-6.1,11.7-12.5,11.7l0,0c-6.4,0-12.5-5.3-12.5-11.7v-3l0,0v-5.1H121c-3.7,0-6.7-2-6.7-5.7V24
				C115.3,24.5,117.2,23.7,118.7,23.7z"/>
			<g>
				<circle cx="120.4" cy="33.3" r="1.1"/>
				<circle cx="126.4" cy="33.3" r="1.1"/>
			</g>
			<path class="st10" d="M119.6,46.6c3,3,7.8,3,10.8,0"/>
			<path class="st10" d="M122.8,28.4c0,0,1.3,7.8-1.8,14.8h6.2"/>
			<path class="st28" d="M146.8,44.4c0-3.5-2.8-6.3-6.3-6.3"/>
			<polyline class="st27" points="125.1,103.4 156.5,109.9 160.7,79.5 			"/>
			<line class="st27" x1="118.3" y1="79.5" x2="102.7" y2="116.2"/>
			<line class="st27" x1="162.1" y1="77.7" x2="158.4" y2="81.4"/>
			<line class="st27" x1="116.5" y1="77.7" x2="120.2" y2="81.4"/>
			<path class="st28" d="M154,52c-0.1,0-0.1,0-0.1,0c-9.2,0-16.6-7.5-16.6-16.7V24.7H117c-6.6,0-12.1-5-12.1-11.7c0-0.1,0,0.1,0,0.1
				l40.5,0.1c4.5,0,8.2,3.6,8.6,8L154,52z"/>
			<circle class="st6" cx="140.4" cy="40.1" r="5.3"/>
			<polygon class="st6" points="121.8,102.5 125.3,102.9 123.3,104.4 			"/>
			<polyline class="st12" points="108.4,103.4 164.7,66 169.3,71.3 105.9,109.9 108.4,103.4 			"/>
			<path class="st9" d="M83.7,115c0-11.2,9.1-20.2,20.2-20.2s20.2,9,20.2,20.1c0,1.7-0.2,3.8-0.6,4.8h3.1c0.3-1,0.5-3.1,0.5-4.7
				c0-12.8-10.4-23.2-23.2-23.2S80.7,102.1,80.7,115c0,1.7,0.2,3.8,0.5,4.8h3.1C84,118.7,83.7,116.7,83.7,115z"/>
			<polygon class="st6" points="129.3,109.8 125.3,102.9 118.4,105.9 123,113.5 			"/>
			<polygon class="st6" points="79.8,106.5 78.7,115.1 85.9,117.3 88.3,107.4 			"/>
			<path class="st9" d="M110.1,115c0-3.8-3.1-6.8-6.9-6.8c-3.8,0-6.9,3-6.9,6.8c0,1.9,0.8,3.8,2,4.8h9.7
				C109.3,118.7,110.1,116.9,110.1,115z"/>
		</g>
		<g>
			<path class="st4" d="M80.3,31.8H61.7c-3.8,0-6.9-3.1-6.9-6.9v0c0-3.8,3.1-6.9,6.9-6.9h18.5c3.8,0,6.9,3.1,6.9,6.9v0
				C87.1,28.8,84,31.8,80.3,31.8z"/>
			<rect x="63.5" y="13.2" class="st4" width="7.5" height="4.9"/>
		</g>
		<polygon class="st12" points="164.7,66 177.6,62.8 169.3,71.3 		"/>
		<path class="st4" d="M179.2,63.9L179.2,63.9c-1.3,0-2.3-1-2.3-2.3v0c0-1.3,1-2.3,2.3-2.3l0,0c1.3,0,2.3,1,2.3,2.3v0
			C181.5,62.9,180.5,63.9,179.2,63.9z"/>
		<circle class="st12" cx="177.6" cy="62.8" r="1.7"/>
		<line class="st4" x1="181.8" y1="46.7" x2="181.8" y2="69.7"/>
		<path class="st3" d="M184.9,20.2h35.5c4.6,0,8.4-4,8.4-6h-52.2C176.6,16.2,180.3,20.2,184.9,20.2z"/>
		<path class="st3" d="M3.8,125.7l4.3-5.5h43.7c0-8,6-13,13.2-13h56.2c7.3,0,13.1,5,13.1,13h72"/>
		<line class="st3" x1="229.3" y1="14.2" x2="240.3" y2="14.2"/>
		<line class="st3" x1="176.3" y1="14.2" x2="166.3" y2="14.2"/>
	</g>
</g>
</svg>
