<?xml version="1.0" encoding="iso-8859-1"?>
<!-- Generator: Adobe Illustrator 16.0.0, SVG Export Plug-In . SVG Version: 6.00 Build 0)  -->
<!DOCTYPE svg PUBLIC "-//W3C//DTD SVG 1.1//EN" "http://www.w3.org/Graphics/SVG/1.1/DTD/svg11.dtd">
<svg xmlns="http://www.w3.org/2000/svg" xmlns:xlink="http://www.w3.org/1999/xlink" version="1.1" id="Capa_1" x="0px" y="0px" width="512px" height="512px" viewBox="0 0 490.637 490.637" style="enable-background:new 0 0 490.637 490.637;" xml:space="preserve">
<g>
	<g>
		<path d="M490.637,222.046v-27.127c-0.141-0.005-0.271-0.014-0.412-0.014h-27.723l-16.307,16.915l-18.684-55.676l-0.158-0.407    c0,0-23.453-21.399-115.711-21.399c-0.514,0-1.012,0.004-1.521,0.006c-0.51-0.002-1.008-0.006-1.52-0.006    c-92.259,0-115.712,21.399-115.712,21.399l-0.158,0.407l-18.684,55.676l-16.307-16.915h-27.722c-0.142,0-0.272,0.009-0.411,0.014    v27.127l29.438,2.94l2.858,5.472c-9.135,8.958-11.114,27.14-5.719,52.711c0.418,1.979,1.083,6.985,1.159,13.185v58.51    c0,0.795,0.642,1.438,1.436,1.438h45.853c0.796,0,1.438-0.644,1.438-1.438l0.007-46.844h104.045h104.045l0.006,46.844    c0,0.795,0.643,1.438,1.438,1.438h45.855c0.795,0,1.438-0.644,1.438-1.438l-0.002-58.51c0.076-6.197,0.74-11.205,1.158-13.185    c5.395-25.571,3.416-43.753-5.717-52.711l2.855-5.472L490.637,222.046z M251.716,278.07l-57.615,0.488l-4.803-24.927l64.022,3.517    L251.716,278.07z M189.402,223.49l19.762-58.888c2.51-1.527,8.816-4.399,23.348-6.989c18.639-3.322,44.24-5.006,76.09-5.006    c0.512,0,1.014,0.002,1.521,0.003c0.508-0.001,1.01-0.003,1.521-0.003c31.852,0,57.451,1.684,76.092,5.006    c14.529,2.59,20.834,5.462,23.346,6.989l19.762,58.888H310.123H189.402z M426.145,278.559l-57.615-0.488l-1.604-20.922    l64.02-3.517L426.145,278.559z" fill="#009688"/>
		<path d="M41.264,159.645L0,195.467c14.823,11.594,24.375,29.623,24.375,49.852c0,20.229-9.552,38.258-24.37,49.854l41.26,35.824    c22.893-21.44,37.224-51.914,37.224-85.678S64.158,181.082,41.264,159.645z" fill="#009688"/>
		<path d="M142.345,354.863v-58.418c-0.075-5.516-0.677-9.428-0.835-10.178c-1.337-6.334-2.259-12.298-2.78-17.898    c-5.165,40.023-23.59,75.949-50.715,103.215l40.91,35.521c10.588-10.98,20.1-23.002,28.393-35.879    C148.939,370.482,142.345,363.432,142.345,354.863z" fill="#009688"/>
		<path d="M129.087,179.928c0.295-0.014,0.605-0.023,0.934-0.023h34.097l3.575,3.708l9.097-27.016    c-11.291-27.342-27.636-52.087-47.863-73.064l-40.91,35.521c17.142,17.231,30.81,37.921,39.853,60.917L129.087,179.928z" fill="#009688"/>
		<path d="M287.347,119.728c-15.87-41.254-39.624-79.388-70.518-112.513l-40.993,35.589c22.821,24.185,41.598,52.218,55.278,82.997    C245.588,122.915,264.02,120.611,287.347,119.728z" fill="#009688"/>
		<path d="M175.837,447.834l40.993,35.588c42.541-45.613,71.558-100.715,85.053-160.402h-55.84    C233.102,370.406,208.627,413.082,175.837,447.834z" fill="#009688"/>
	</g>
</g>
<g>
</g>
<g>
</g>
<g>
</g>
<g>
</g>
<g>
</g>
<g>
</g>
<g>
</g>
<g>
</g>
<g>
</g>
<g>
</g>
<g>
</g>
<g>
</g>
<g>
</g>
<g>
</g>
<g>
</g>
</svg>
